<svg width="24" height="24" fill="none" xmlns="http://www.w3.org/2000/svg"><g clip-path="url(#clip0_600_7858)"><path d="M12 24c6.627 0 12-5.373 12-12S18.627 0 12 0 0 5.373 0 12s5.373 12 12 12z" fill="#F0F0F0"/><path d="M2.48 4.693A11.956 11.956 0 00.414 8.87h6.243L2.481 4.693zm21.107 4.176a11.959 11.959 0 00-2.067-4.176L17.344 8.87h6.243zM.413 15.13a11.958 11.958 0 002.068 4.176l4.175-4.176H.413zM19.306 2.48A11.957 11.957 0 0015.13.413v6.242l4.176-4.175zM4.694 21.518a11.96 11.96 0 004.175 2.067v-6.242l-4.175 4.175zM8.87.413A11.957 11.957 0 004.693 2.48l4.175 4.175V.413zm6.26 23.172a11.958 11.958 0 004.175-2.067l-4.175-4.175v6.242zm2.214-8.455l4.176 4.176a11.958 11.958 0 002.067-4.176h-6.243z" fill="#0052B4"/><path d="M23.898 10.435H13.565V.102a12.12 12.12 0 00-3.13 0v10.333H.102a12.12 12.12 0 000 3.13h10.333v10.333a12.12 12.12 0 003.13 0V13.565h10.333a12.12 12.12 0 000-3.13z" fill="#D80027"/><path d="M15.13 15.131l5.355 5.355c.247-.246.481-.504.706-.77l-4.585-4.585H15.13zm-6.26 0l-5.355 5.355c.246.246.503.481.77.705l4.585-4.584V15.13zm0-6.261v-.001L3.514 3.514c-.247.246-.482.504-.706.77L7.394 8.87h1.475zm6.26 0l5.355-5.355a11.996 11.996 0 00-.77-.705L15.13 7.395V8.87z" fill="#D80027"/></g><defs><clipPath id="clip0_600_7858"><path fill="#fff" d="M0 0h24v24H0z"/></clipPath></defs></svg>