<svg xmlns="http://www.w3.org/2000/svg" version="1.1" xmlns:xlink="http://www.w3.org/1999/xlink" width="20" height="20" x="0" y="0" viewBox="0 0 512 512" style="enable-background:new 0 0 512 512" xml:space="preserve" class=""><g><path d="M488 264H272V48a8 8 0 0 0-8-8H40a24.027 24.027 0 0 0-24 24v280a24.027 24.027 0 0 0 24 24h168v64h-24a8 8 0 0 0-8 8v32a8 8 0 0 0 8 8h144a8 8 0 0 0 8-8v-32a8 8 0 0 0-8-8h-24v-64h168a24.027 24.027 0 0 0 24-24v-72a8 8 0 0 0-8-8ZM40 56h216v32H32V64a8.01 8.01 0 0 1 8-8Zm280 408H192v-16h128Zm-32-32h-64v-64h24v24a8 8 0 0 0 16 0v-24h24Zm192-88a8.01 8.01 0 0 1-8 8H40a8.01 8.01 0 0 1-8-8V104h224v168a8 8 0 0 0 8 8h216Z" fill="#000000" opacity="1" data-original="#000000" class=""></path><circle cx="48" cy="72" r="8" fill="#000000" opacity="1" data-original="#000000" class=""></circle><circle cx="72" cy="72" r="8" fill="#000000" opacity="1" data-original="#000000" class=""></circle><circle cx="96" cy="72" r="8" fill="#000000" opacity="1" data-original="#000000" class=""></circle><path d="M240 128a8 8 0 0 0-8-8h-32a8 8 0 0 0-8 8v32h-24a8 8 0 0 0-8 8v24h-24a8 8 0 0 0-8 8v32h-24a8 8 0 0 0-8 8v24H72a8 8 0 0 0-8 8v24H48v16h224v-16h-32ZM80 280h16v16H80Zm32-32h16v48h-16Zm32-40h16v88h-16Zm32-32h16v120h-16Zm32 120V136h16v160ZM288 296h16v16h-16zM344 216a24 24 0 1 0-22.624-32H288v16h33.376A24.038 24.038 0 0 0 344 216Zm0-32a8 8 0 1 1-8 8 8.01 8.01 0 0 1 8-8ZM472 40a24.038 24.038 0 0 0-22.624 16H432a8.001 8.001 0 0 0-6.074 2.793l-42.378 49.441-25.891-25.89A7.999 7.999 0 0 0 352 80h-64v16h60.687l29.656 29.657A7.999 7.999 0 0 0 384 128h41.376a24 24 0 1 0 0-16h-23.982l34.286-40h13.696A23.999 23.999 0 1 0 472 40Zm-24 72a8 8 0 1 1-8 8 8.01 8.01 0 0 1 8-8Zm24-40a8 8 0 1 1 8-8 8.01 8.01 0 0 1-8 8Z" fill="#000000" opacity="1" data-original="#000000" class=""></path><path d="M376 80a24 24 0 1 0-22.624-32H288v16h65.376A24.038 24.038 0 0 0 376 80Zm0-32a8 8 0 1 1-8 8 8.01 8.01 0 0 1 8-8ZM362.345 149.659a24.009 24.009 0 1 0 11.314-11.314l-16.002-16.002A7.999 7.999 0 0 0 352 120h-64v16h60.687ZM392 160a8 8 0 1 1-8-8 8.01 8.01 0 0 1 8 8Z" fill="#000000" opacity="1" data-original="#000000" class=""></path><path d="m414.247 236.998 24.64-30.8a24.018 24.018 0 1 0-11.94-10.688L404.155 224H288v16h120a8 8 0 0 0 6.247-3.002ZM448 176a8 8 0 1 1-8 8 8.01 8.01 0 0 1 8-8Z" fill="#000000" opacity="1" data-original="#000000" class=""></path></g></svg>