<svg xmlns="http://www.w3.org/2000/svg" version="1.1" xmlns:xlink="http://www.w3.org/1999/xlink" width="20" height="20" x="0" y="0" viewBox="0 0 512 512" style="enable-background:new 0 0 512 512" xml:space="preserve" class=""><g><path d="M386.971 349.567c-11.884-7.019-26.931-6.3-40.291 1.914L268.456 394.1a7.031 7.031 0 0 0-.956.628 13.849 13.849 0 0 1-1.606 1.065 21.009 21.009 0 0 0 2.921-9.719c.435-10.255-6.65-19.991-21.059-28.937-29.978-18.612-88.777-30.829-112.116-18.017a5.286 5.286 0 0 0-.252.145L85.338 369.5l-.614-1.063a22.46 22.46 0 0 0-30.646-8.212l-20.994 12.12a22.48 22.48 0 0 0-8.211 30.646l51.271 88.8a22.276 22.276 0 0 0 13.627 10.435 22.645 22.645 0 0 0 5.87.778 22.234 22.234 0 0 0 11.149-3l20.992-12.121a22.45 22.45 0 0 0 9-29.123l3.719-2.4c.4.126.849.262 1.357.4l75.221 20.665a59.631 59.631 0 0 0 19.537 3.477 50.3 50.3 0 0 0 27.163-8.007l116.034-69.97c18.335-8.555 21.656-20.891 22-27.51.523-10.225-5.162-20.129-14.842-25.848zM124.7 470.635a8.37 8.37 0 0 1-3.912 5.126L99.79 487.882a8.478 8.478 0 0 1-11.522-3.088L37 395.991a8.479 8.479 0 0 1 3.087-11.522l20.993-12.121a8.446 8.446 0 0 1 11.52 3.088l51.271 88.8a8.38 8.38 0 0 1 .829 6.399zm263.131-95.944c-.312 6.046-5.364 11.615-14.223 15.68a6.8 6.8 0 0 0-.7.368L256.49 460.94l-.115.071c-10.528 6.629-21.949 7.648-34.913 3.118-.149-.053-.3-.1-.454-.142l-75.445-20.727a25.873 25.873 0 0 1-1.844-.585c-4.351-1.522-6.724-.72-10.4 1.654l-3.48 2.249-37.5-64.953 50.152-30.3c17.038-9.176 69.981.381 97.881 17.7 9.383 5.826 14.653 11.822 14.457 16.451-.176 4.131-4.912 8.837-13.355 13.319-11.9-1.008-28.667-4.436-52.306-12.222a7 7 0 0 0-4.38 13.3c46.911 15.452 75.813 17.451 90.832 6.264l77.925-42.452c.116-.063.23-.129.342-.2 12.818-7.952 22.427-3.953 25.963-1.864 5.179 3.059 8.235 8.067 7.976 13.07zM71.868 401.408a7 7 0 1 1-12.124 7l-7.474-12.946a7 7 0 1 1 12.124-7zm415.259-292.4-51.271-88.8a22.48 22.48 0 0 0-30.646-8.212l-20.992 12.119a22.45 22.45 0 0 0-9 29.123l-3.719 2.4c-.4-.126-.849-.262-1.357-.4l-75.217-20.663c-16.9-5.842-32.609-4.319-46.7 4.53l-116.034 69.97c-18.335 8.555-21.656 20.891-22 27.51-.528 10.225 5.157 20.129 14.837 25.848a34.759 34.759 0 0 0 17.8 4.8 43.1 43.1 0 0 0 22.487-6.712l78.229-42.621a7.031 7.031 0 0 0 .956-.628 13.849 13.849 0 0 1 1.606-1.065 21.006 21.006 0 0 0-2.921 9.719c-.435 10.255 6.65 19.991 21.06 28.937 21.391 13.281 57.451 23.3 84.837 23.3 10.993 0 20.593-1.616 27.278-5.286.085-.046.169-.094.252-.145l50.05-30.238.614 1.063A22.278 22.278 0 0 0 440.9 154a22.656 22.656 0 0 0 5.87.778 22.231 22.231 0 0 0 11.149-3l20.994-12.121a22.48 22.48 0 0 0 8.211-30.646zm-117.618 51.667c-17.039 9.178-69.98-.38-97.88-17.7-9.384-5.826-14.654-11.822-14.458-16.451.175-4.131 4.912-8.838 13.356-13.32 11.9 1.009 28.667 4.437 52.305 12.223a7 7 0 0 0 4.38-13.3c-46.912-15.451-75.812-17.45-90.832-6.263l-77.925 42.452c-.116.063-.23.129-.342.2-12.817 7.952-22.427 3.954-25.963 1.864-5.179-3.059-8.235-8.067-7.976-13.07.312-6.046 5.364-11.615 14.223-15.68a6.8 6.8 0 0 0 .7-.368L255.51 51.06l.115-.071c10.529-6.628 21.949-7.648 34.913-3.118.15.053.3.1.454.142l75.445 20.726c.788.217 1.348.413 1.843.586 4.349 1.521 6.724.72 10.4-1.654l3.48-2.249 37.5 64.953zm106.319-38.27a8.374 8.374 0 0 1-3.912 5.126l-20.994 12.121a8.479 8.479 0 0 1-11.522-3.088l-51.271-88.8a8.482 8.482 0 0 1 3.088-11.523l20.993-12.123A8.323 8.323 0 0 1 416.382 23a8.608 8.608 0 0 1 2.224.294 8.372 8.372 0 0 1 5.126 3.913L475 116.009a8.372 8.372 0 0 1 .828 6.396zm-16.1-5.867a7 7 0 1 1-12.124 7l-7.474-12.946a7 7 0 0 1 12.124-7zM344.664 256.2a84.233 84.233 0 1 0-84.232 84.233 84.328 84.328 0 0 0 84.232-84.233zm-154.465 0a70.233 70.233 0 1 1 70.233 70.233A70.312 70.312 0 0 1 190.2 256.2zm70.722 55.4a7 7 0 0 1-7-7v-6.715c-12.325-2.516-21.675-10.791-24.407-22.675a7 7 0 1 1 13.644-3.136c2.365 10.29 13.2 13.624 22.9 12.361 5.313-.692 9.508-3.406 10.949-7.083 1.077-2.747.483-5.6-1.718-8.238-3.576-4.294-7.194-5.011-13.81-6a58.019 58.019 0 0 1-11.853-2.7 8.086 8.086 0 0 1-.217-.083c-10.515-4.261-16.707-12.53-16.563-22.12.146-9.775 6.761-18.51 16.853-22.252a35.222 35.222 0 0 1 4.218-1.266v-6.894a7 7 0 1 1 14 0v6.721c10.047 2.212 18.56 9.516 22.771 20.633a7 7 0 1 1-13.091 4.96c-3.888-10.262-13.144-14.7-23.031-11.027-4.561 1.691-7.664 5.442-7.722 9.334-.055 3.67 2.684 6.824 7.715 8.891a46.121 46.121 0 0 0 9 1.961c7.19 1.078 15.338 2.3 22.491 10.89 5.423 6.512 6.916 14.85 4 22.3-3.348 8.544-11.618 14.465-22.125 15.849v6.289a7 7 0 0 1-7.004 7z" fill="#000000" opacity="1" data-original="#000000"></path></g></svg>