<svg xmlns="http://www.w3.org/2000/svg" version="1.1" xmlns:xlink="http://www.w3.org/1999/xlink" width="20" height="20" x="0" y="0" viewBox="0 0 512 512" style="enable-background:new 0 0 512 512" xml:space="preserve" class=""><g><path d="M490.674 317.733c-1.654-1.553-3.134-2.926-4.464-4.16-5.215-4.837-7.833-7.266-9.123-9.501-1.291-2.235-2.084-5.715-3.667-12.65-.404-1.769-.853-3.738-1.371-5.947-2.935-12.527-13.538-21.424-26.384-22.139a917.151 917.151 0 0 0-6.095-.316c-7.104-.354-10.669-.532-13.095-1.415-2.425-.882-5.271-3.039-10.94-7.334-1.446-1.095-3.056-2.315-4.872-3.674-10.299-7.71-24.141-7.71-34.441 0a1087.26 1087.26 0 0 0-4.871 3.673c-5.67 4.296-8.516 6.452-10.942 7.335-1.015.37-2.235.615-3.826.802-26.238-23.554-57.651-39.794-91.43-47.615 36.536-17.542 61.822-54.909 61.822-98.073C326.976 56.771 278.205 8 218.257 8S109.538 56.771 109.538 116.719c0 43.166 25.288 80.535 61.827 98.076-34.026 7.885-65.702 24.306-92.033 48.118-37.854 34.233-61.68 80.914-67.087 131.444a7.997 7.997 0 0 0 7.954 8.851l198.044-.001.013.001.013-.001h80.584c2.833 6.553 8.085 11.964 15.067 14.955 2.085.893 3.947 1.678 5.618 2.382.851.358 1.644.693 2.389 1.009l-22.292 47.88a9.817 9.817 0 0 0 1.113 10.148 9.813 9.813 0 0 0 9.509 3.705l22.497-3.93 11.474 19.745a9.814 9.814 0 0 0 8.959 4.89 9.822 9.822 0 0 0 8.482-5.682l21.937-47.119c4.886-1.491 7.661-2.242 9.837-2.242s4.951.751 9.838 2.242l21.936 47.118a9.817 9.817 0 0 0 8.934 5.693 9.815 9.815 0 0 0 8.507-4.9l11.474-19.745 22.497 3.931a9.818 9.818 0 0 0 9.513-3.711 9.814 9.814 0 0 0 1.107-10.145l-22.291-47.878c.745-.316 1.538-.65 2.389-1.009a997.998 997.998 0 0 0 5.618-2.382c11.827-5.065 18.748-17.052 17.221-29.828-.269-2.253-.521-4.257-.746-6.057-.885-7.058-1.33-10.6-.881-13.142s2.077-5.719 5.323-12.048c.827-1.614 1.749-3.411 2.772-5.435 5.805-11.483 3.402-25.113-5.98-33.919zm-200.442 33.919c1.023 2.024 1.945 3.821 2.772 5.436 3.246 6.33 4.875 9.506 5.323 12.048s.004 6.084-.881 13.142c-.187 1.492-.392 3.133-.61 4.93H236.28l20.18-22.31a8.002 8.002 0 0 0 1.902-6.982l-10.282-49.848 2 2.371a7.998 7.998 0 0 0 13.092-1.243l36.742-65.478a190.661 190.661 0 0 1 34.273 20.884c-9.56 2.963-16.972 10.726-19.35 20.876-.518 2.208-.967 4.178-1.37 5.946-1.582 6.935-2.376 10.416-3.667 12.651s-3.908 4.664-9.123 9.501a932.813 932.813 0 0 0-4.465 4.16c-9.381 8.802-11.784 22.433-5.98 33.916zm-108.586-60.355-30.247-53.902a190.369 190.369 0 0 1 17.175-5.462l38.191 29.58zm28.412-8.872 8.198-9.721 8.197 9.72 15.418 74.75-23.616 26.109-23.616-26.109zm19.691-20.912 38.149-29.547a190.112 190.112 0 0 1 17.179 5.494l-30.21 53.837zM125.538 116.719c0-51.125 41.594-92.719 92.719-92.719s92.719 41.594 92.719 92.719c0 51.112-41.572 92.697-92.679 92.719h-.081c-51.106-.023-92.678-41.607-92.678-92.719zm92.719 108.719h.04a192.31 192.31 0 0 1 29.036 2.218l-29.077 22.521-29.1-22.539a193.63 193.63 0 0 1 29.06-2.2h.041zm-81.702 18.199 36.787 65.557a8 8 0 0 0 13.092 1.243l1.999-2.37-10.282 49.848a8 8 0 0 0 1.902 6.983l20.18 22.31-170.926.001c9.888-64.333 51.207-117.18 107.248-143.572zM352.14 480.869l-8.352-14.374a8.003 8.003 0 0 0-8.294-3.861l-16.375 2.861 16.07-34.517c1.079 1.571 2.345 3.531 3.945 6.008.984 1.523 2.08 3.22 3.321 5.119 5.014 7.666 13.055 12.253 21.714 12.927zm99.253-18.235a7.998 7.998 0 0 0-8.294 3.861l-8.352 14.373-12.023-25.825c8.657-.676 16.696-5.273 21.708-12.939 1.241-1.898 2.337-3.595 3.321-5.118 1.6-2.478 2.866-4.437 3.945-6.008l16.07 34.517zm30.982-118.2a1029.737 1029.737 0 0 1-2.73 5.352c-7.97 15.542-8.253 17.153-6.08 34.482.222 1.772.47 3.746.735 5.964.688 5.751-2.309 10.941-7.633 13.221-2.054.879-3.887 1.652-5.533 2.346-16.094 6.783-17.348 7.834-26.822 22.507-.969 1.5-2.047 3.171-3.27 5.041-3.17 4.847-8.803 6.897-14.345 5.221-2.138-.646-4.039-1.233-5.746-1.76-8.345-2.575-12.926-3.862-17.507-3.862s-9.163 1.288-17.507 3.862c-1.707.527-3.607 1.113-5.746 1.76-5.543 1.672-11.175-.374-14.345-5.221-1.223-1.87-2.301-3.541-3.27-5.041-9.475-14.672-10.728-15.724-26.822-22.507a930.636 930.636 0 0 1-5.533-2.346c-5.324-2.28-8.32-7.47-7.633-13.221.265-2.218.513-4.192.735-5.964 2.173-17.329 1.89-18.94-6.081-34.482-.815-1.589-1.722-3.359-2.73-5.352-2.613-5.169-1.572-11.071 2.65-15.034a978.524 978.524 0 0 1 4.397-4.097c12.804-11.877 13.622-13.294 17.507-30.323.397-1.741.84-3.68 1.349-5.855 1.321-5.64 5.912-9.492 11.695-9.813 2.231-.125 4.218-.223 6.002-.312 17.443-.869 18.98-1.429 32.903-11.977 1.423-1.078 3.008-2.279 4.796-3.618 4.638-3.471 10.629-3.47 15.266 0 1.789 1.338 3.374 2.54 4.798 3.619 13.921 10.546 15.458 11.106 32.901 11.975 1.784.089 3.771.188 6.002.312 5.783.321 10.374 4.173 11.695 9.813.51 2.175.952 4.115 1.35 5.856 3.885 17.027 4.703 18.444 17.507 30.322 1.31 1.215 2.768 2.567 4.396 4.096 4.222 3.965 5.263 9.867 2.649 15.036zm-88.932-54.357c-33.027 0-59.897 26.87-59.897 59.896s26.87 59.896 59.897 59.896S453.34 383 453.34 349.974s-26.869-59.897-59.897-59.897zm0 103.793c-24.205 0-43.897-19.692-43.897-43.896s19.692-43.896 43.897-43.896 43.897 19.692 43.897 43.896-19.692 43.896-43.897 43.896z" fill="#000000" opacity="1" data-original="#000000" class=""></path></g></svg>