<svg xmlns="http://www.w3.org/2000/svg" version="1.1" xmlns:xlink="http://www.w3.org/1999/xlink" width="20" height="20" x="0" y="0" viewBox="0 0 510 510" style="enable-background:new 0 0 512 512" xml:space="preserve" fill-rule="evenodd" class=""><g><path d="M446.259 487h32.088c4.415 0 8 3.585 8 8s-3.585 8-8 8H31.653c-4.415 0-8-3.585-8-8s3.585-8 8-8h32.088V307.44h.027a17.565 17.565 0 0 1-.027-.974c0-6.698 3.779-13.269 11.184-18.29 8.262-5.602 21.537-9.473 36.567-9.473s28.305 3.871 36.567 9.473c7.405 5.021 11.184 11.592 11.184 18.29 0 .325-.009.65-.027.974h.027V487h48.006V220.228c0-6.697 3.779-13.269 11.184-18.29 8.262-5.602 21.537-9.472 36.567-9.472s28.305 3.87 36.567 9.472c7.405 5.021 11.184 11.593 11.184 18.29V487h48.006V117.931c0-6.697 3.779-13.268 11.184-18.289 8.262-5.602 21.537-9.473 36.567-9.473s28.305 3.871 36.567 9.473c7.405 5.021 11.184 11.592 11.184 18.289zm-366.518 0h63.502V327.543c-8.178 4.058-19.369 6.685-31.751 6.685s-23.573-2.627-31.751-6.685zm143.508 0h63.502V241.306c-8.178 4.057-19.369 6.684-31.751 6.684s-23.573-2.627-31.751-6.684zm143.508 0h63.502V139.009c-8.178 4.058-19.369 6.685-31.751 6.685s-23.573-2.627-31.751-6.685zm-80.006-266.772c0-2.044-1.903-3.515-4.163-5.047-6.211-4.211-16.29-6.715-27.588-6.715s-21.377 2.504-27.588 6.715c-2.26 1.532-4.163 3.003-4.163 5.047s1.903 3.514 4.163 5.047c6.211 4.211 16.29 6.715 27.588 6.715s21.377-2.504 27.588-6.715c2.26-1.533 4.163-3.003 4.163-5.047zm143.508-102.297c0-2.043-1.903-3.514-4.163-5.046-6.211-4.211-16.29-6.716-27.588-6.716s-21.377 2.505-27.588 6.716c-2.259 1.532-4.163 3.003-4.163 5.046 0 2.044 1.904 3.515 4.163 5.047 6.211 4.211 16.29 6.716 27.588 6.716s21.377-2.505 27.588-6.716c2.26-1.532 4.163-3.003 4.163-5.047zM111.492 294.703c-11.298 0-21.377 2.505-27.588 6.716-2.26 1.532-4.163 3.003-4.163 5.047s1.903 3.514 4.163 5.046c6.211 4.211 16.29 6.716 27.588 6.716s21.377-2.505 27.588-6.716c2.259-1.532 4.163-3.002 4.163-5.046s-1.904-3.515-4.163-5.047c-6.211-4.211-16.29-6.716-27.588-6.716zM404.37 35.431C306.148 119.3 198.667 172.279 97.025 206.523c-4.184 1.41-8.726-.843-10.136-5.027s.843-8.726 5.027-10.135c99.5-33.523 204.718-85.273 300.941-167.14l-15.374.82a8.004 8.004 0 0 1-8.414-7.563 8.003 8.003 0 0 1 7.562-8.415l38.472-2.052a7.998 7.998 0 0 1 8.338 9.178l-5.55 36.933a8.003 8.003 0 0 1-9.1 6.722 8.003 8.003 0 0 1-6.722-9.099z" fill="#000000" opacity="1" data-original="#000000" class=""></path></g></svg>