<svg xmlns="http://www.w3.org/2000/svg" version="1.1" xmlns:xlink="http://www.w3.org/1999/xlink" width="20" height="20" x="0" y="0" viewBox="0 0 510 510" style="enable-background:new 0 0 512 512" xml:space="preserve" fill-rule="evenodd" class=""><g><path d="M129.246 334.553H84.718c-36.646 0-66.622-29.979-66.622-66.601 0-25.787 14.851-48.273 36.414-59.336l-.001-.344c0-56.155 45.511-101.686 101.666-101.686 2.761 0 5.497.11 8.203.326 11.295-43.843 51.086-76.245 98.456-76.245 25.702 0 49.195 9.545 67.102 25.292a92.577 92.577 0 0 1 26.564-3.871c45.924 0 84.008 33.428 91.3 77.277 26.154 9.432 44.104 34.481 44.104 62.668 0 36.623-29.976 66.601-66.622 66.601h-40.696c.435 3.055.66 6.167.66 9.318 0 36.622-29.976 66.601-66.622 66.601h-44.528v73.914h26.739c3.542-13.474 15.816-23.425 30.396-23.425 17.345 0 31.426 14.081 31.426 31.425 0 17.345-14.081 31.426-31.426 31.426-14.58 0-26.854-9.951-30.396-23.426h-34.739a8 8 0 0 1-8-8v-81.914h-48.425v82.958c13.475 3.542 23.425 15.816 23.425 30.396 0 17.344-14.081 31.426-31.425 31.426s-31.426-14.082-31.426-31.426c0-14.58 9.951-26.854 23.426-30.396v-82.958h-48.425v81.914a8 8 0 0 1-8 8h-34.739c-3.542 13.475-15.816 23.426-30.396 23.426-17.345 0-31.426-14.081-31.426-31.426 0-17.344 14.081-31.425 31.426-31.425 14.58 0 26.854 9.951 30.396 23.425h26.739zm51.012-225.097c16.203 3.937 30.893 11.757 43.02 22.421a92.575 92.575 0 0 1 26.563-3.871c45.924 0 84.009 33.429 91.301 77.277 17.914 6.46 31.979 20.248 39.063 37.351h45.077c27.844 0 50.622-22.775 50.622-50.601 0-22.796-15.461-42.884-37.435-48.848a7.998 7.998 0 0 1-5.858-6.86c-4.149-38.373-36.631-68.237-76.111-68.237a76.444 76.444 0 0 0-25.836 4.467 8 8 0 0 1-8.262-1.784c-15.418-14.925-36.431-24.104-59.568-24.104-39.39 0-72.566 26.584-82.576 62.789zm138.366 209.097c27.844 0 50.622-22.775 50.622-50.601 0-22.797-15.462-42.885-37.435-48.848a8 8 0 0 1-5.858-6.861c-4.149-38.373-36.631-68.237-76.112-68.237a76.467 76.467 0 0 0-25.835 4.467 8 8 0 0 1-8.262-1.783c-15.418-14.926-36.432-24.104-59.569-24.104-47.318 0-85.666 38.368-85.666 85.686 0 1.649.037 3.298.132 4.928a8 8 0 0 1-4.95 7.865c-18.468 7.577-31.595 25.767-31.595 46.887 0 27.826 22.778 50.601 50.622 50.601zm12.607 82.489c-8.513 0-15.425 6.912-15.425 15.425 0 8.514 6.912 15.426 15.425 15.426 8.514 0 15.426-6.912 15.426-15.426 0-8.513-6.912-15.425-15.426-15.425zm-129.56 31.439c-8.514 0-15.426 6.912-15.426 15.426s6.912 15.426 15.426 15.426 15.425-6.912 15.425-15.426-6.911-15.426-15.425-15.426zm-129.56-31.439c-8.514 0-15.426 6.912-15.426 15.425 0 8.514 6.912 15.426 15.426 15.426 8.513 0 15.425-6.912 15.425-15.426 0-8.513-6.912-15.425-15.425-15.425zM356.81 118.95v-17.505c0-4.415 3.585-8 8-8 4.416 0 8 3.585 8 8v17.505h17.505c4.415 0 8 3.584 8 8 0 4.415-3.585 8-8 8H372.81v17.504c0 4.415-3.584 8-8 8-4.415 0-8-3.585-8-8V134.95h-17.504c-4.415 0-8-3.585-8-8 0-4.416 3.585-8 8-8z" fill="#000000" opacity="1" data-original="#000000" class=""></path></g></svg>