<svg xmlns="http://www.w3.org/2000/svg" version="1.1" xmlns:xlink="http://www.w3.org/1999/xlink" width="20" height="20" x="0" y="0" viewBox="0 0 64 64" style="enable-background:new 0 0 512 512" xml:space="preserve" class=""><g><path d="M10.754 36.927a3.996 3.996 0 0 0 3.053-.275 3.98 3.98 0 0 0 1.964-2.354 4.01 4.01 0 0 0-2.629-5.017 4.011 4.011 0 0 0-5.017 2.629 4.012 4.012 0 0 0 2.629 5.017zm-.719-4.421a2.005 2.005 0 1 1 3.827 1.195 2.005 2.005 0 0 1-3.827-1.195zM32 6c-4.411 0-8 3.589-8 8s3.589 8 8 8 8-3.589 8-8-3.589-8-8-8zm0 14c-3.309 0-6-2.691-6-6s2.691-6 6-6 6 2.691 6 6-2.691 6-6 6z" fill="#000000" opacity="1" data-original="#000000"></path><path d="m2.604 33.09 1.235.386c.011.238.032.475.063.71l-1.145.6a1 1 0 0 0-.422 1.35L4 39.314a1 1 0 0 0 1.35.422l1.146-.6c.175.16.358.312.547.457l-.386 1.234a1 1 0 0 0 .656 1.253l3.425 1.07a1.016 1.016 0 0 0 .762-.069.997.997 0 0 0 .49-.588l.386-1.235c.238-.011.475-.032.71-.063l.601 1.146a.998.998 0 0 0 1.35.421l3.178-1.666a1 1 0 0 0 .421-1.35l-.6-1.146c.16-.176.312-.358.457-.548l1.234.386a1.002 1.002 0 0 0 1.253-.656l1.07-3.425a1.003 1.003 0 0 0-.656-1.253l-1.235-.385a8.393 8.393 0 0 0-.063-.71l1.145-.6a1 1 0 0 0 .422-1.35L20 26.881a1 1 0 0 0-1.35-.422l-1.146.6a8.037 8.037 0 0 0-.548-.457l.386-1.234a1 1 0 0 0-.656-1.253l-3.425-1.07a.997.997 0 0 0-1.253.656l-.386 1.235a8 8 0 0 0-.71.064l-.601-1.146a.998.998 0 0 0-1.35-.421l-3.178 1.666a1 1 0 0 0-.421 1.35l.6 1.146a7.99 7.99 0 0 0-.457.548l-1.234-.386a1 1 0 0 0-1.253.656l-1.07 3.425a1 1 0 0 0 .656 1.252zm2.024-3.127.982.307c.436.135.908-.041 1.148-.428a6.14 6.14 0 0 1 1.1-1.319 1 1 0 0 0 .215-1.206l-.478-.912 1.407-.737.478.912c.211.403.667.612 1.115.509a6.128 6.128 0 0 1 1.71-.154.998.998 0 0 0 1.005-.7l.307-.983 1.516.474-.307.982a1 1 0 0 0 .427 1.148c.491.305.935.675 1.319 1.101a.999.999 0 0 0 1.206.215l.912-.478.737 1.407-.911.478c-.404.212-.614.67-.51 1.115.131.557.183 1.133.154 1.71a1 1 0 0 0 .7 1.005l.983.307-.474 1.517-.982-.307a.996.996 0 0 0-1.148.427 6.15 6.15 0 0 1-1.1 1.319.999.999 0 0 0-.216 1.206l.478.912-1.407.737-.478-.912a.998.998 0 0 0-1.115-.509 6.118 6.118 0 0 1-1.71.154 1.007 1.007 0 0 0-1.005.701l-.307.982-1.516-.474.307-.982a1 1 0 0 0-.428-1.148 6.091 6.091 0 0 1-1.319-1.1.995.995 0 0 0-1.204-.216l-.911.477-.737-1.407.911-.478a1 1 0 0 0 .51-1.114 6.135 6.135 0 0 1-.154-1.711 1 1 0 0 0-.7-1.005l-.983-.307zM54.069 39.715a3.97 3.97 0 0 0-2.995-.634c-1.05.195-1.961.788-2.565 1.669s-.83 1.944-.634 2.995a4.006 4.006 0 0 0 4.664 3.2 4.004 4.004 0 0 0 3.2-4.663 3.973 3.973 0 0 0-1.67-2.567zm-.614 4.429c-.302.44-.758.736-1.283.834-.526.097-1.057-.015-1.497-.317s-.736-.758-.834-1.283.015-1.057.317-1.497a1.988 1.988 0 0 1 1.653-.868c.4 0 .791.12 1.127.351.44.302.737.757.834 1.283a1.987 1.987 0 0 1-.317 1.497z" fill="#000000" opacity="1" data-original="#000000"></path><path d="m58.973 35.793-2.958-2.03a1 1 0 0 0-1.391.259l-.731 1.066a7.864 7.864 0 0 0-.698-.147l-.237-1.272a.999.999 0 0 0-1.166-.8l-3.528.657a.999.999 0 0 0-.8 1.166l.237 1.272c-.205.121-.405.25-.598.389l-1.066-.732a.999.999 0 0 0-1.391.259l-2.03 2.959a1.002 1.002 0 0 0 .259 1.391l1.066.731c-.059.23-.108.463-.147.698l-1.271.237a.996.996 0 0 0-.8 1.166l.657 3.528a.999.999 0 0 0 1.166.8l1.271-.237c.121.205.25.405.389.598l-.732 1.066a.998.998 0 0 0 .259 1.391l2.959 2.03a1 1 0 0 0 1.391-.259l.731-1.066c.23.06.463.109.698.147l.237 1.272a1 1 0 0 0 1.166.8l3.527-.657a1 1 0 0 0 .8-1.166l-.236-1.272c.205-.121.405-.251.598-.389l1.066.732a.998.998 0 0 0 1.391-.259l2.03-2.959a.998.998 0 0 0-.259-1.391l-1.067-.731c.06-.23.109-.463.147-.698l1.272-.237a.999.999 0 0 0 .8-1.166l-.657-3.528a.999.999 0 0 0-1.166-.8l-1.271.237a7.654 7.654 0 0 0-.389-.598l.731-1.067a1 1 0 0 0-.259-1.39zm-.442 5.156 1.012-.188.291 1.562-1.012.188a.998.998 0 0 0-.814.915 6.169 6.169 0 0 1-.355 1.681 1 1 0 0 0 .374 1.167l.849.582-.899 1.31-.848-.583a1.001 1.001 0 0 0-1.224.071 6.169 6.169 0 0 1-1.44.937 1 1 0 0 0-.56 1.089l.188 1.012-1.562.291-.188-1.012a.998.998 0 0 0-.915-.814 6.169 6.169 0 0 1-1.681-.355.996.996 0 0 0-1.167.373l-.582.849-1.31-.898.583-.849c.258-.376.229-.88-.071-1.224a6.148 6.148 0 0 1-.936-1.439.998.998 0 0 0-1.089-.561l-1.012.188-.291-1.562 1.012-.188a.998.998 0 0 0 .814-.915c.04-.578.159-1.143.355-1.681a1 1 0 0 0-.374-1.167l-.849-.582.899-1.31.848.583c.375.256.878.229 1.224-.071a6.169 6.169 0 0 1 1.44-.937 1 1 0 0 0 .56-1.089l-.188-1.012 1.562-.291.188 1.012a.998.998 0 0 0 .915.814c.576.04 1.142.159 1.681.355a.996.996 0 0 0 1.167-.374l.582-.849 1.31.898-.582.849a1 1 0 0 0 .071 1.223c.377.432.692.917.936 1.439a.995.995 0 0 0 1.088.563zM33 10h-2v5a1 1 0 0 0 1 1h4v-2h-3zM32 26c.733 0 1.467-.066 2.181-.198l-.361-1.967c-.595.11-1.208.165-1.82.165zM35.636 23.318l.728 1.863a11.97 11.97 0 0 0 2.182-1.123l-1.092-1.676a9.859 9.859 0 0 1-1.818.936zM42.059 20.546l-1.676-1.092c-.326.5-.7.975-1.11 1.408l1.454 1.374c.492-.52.94-1.089 1.332-1.69z" fill="#000000" opacity="1" data-original="#000000"></path><path d="m29.819 25.802.361-1.967A9.992 9.992 0 0 1 22 14c0-5.514 4.486-10 10-10s10 4.486 10 10a9.933 9.933 0 0 1-.682 3.636 1.001 1.001 0 0 0 1.402 1.246l3.75-2-.941-1.765-1.699.906c.113-.664.17-1.339.17-2.023 0-6.617-5.383-12-12-12S20 7.383 20 14a11.991 11.991 0 0 0 9.819 11.802zM18.672 10.845l-1.068-1.691A27.03 27.03 0 0 0 7.529 20.576l1.812.848a25.027 25.027 0 0 1 9.331-10.579zM10.344 44.5l-1.731 1a27.212 27.212 0 0 0 13.002 11.43l.77-1.846A25.193 25.193 0 0 1 10.344 44.5zM45.461 53.07a25.054 25.054 0 0 1-3.846 2.014l.77 1.846a27.157 27.157 0 0 0 4.155-2.175zM57 32h2c0-9.253-4.658-17.76-12.461-22.755l-1.078 1.685C52.687 15.555 57 23.432 57 32zM24 51v10a1 1 0 0 0 1 1h14a1 1 0 0 0 1-1V51c0-2.312-1.586-4.244-3.721-4.813.886-.9 1.499-2.061 1.652-3.37.061-.308.069-.598.069-.817 0-3.309-2.691-6-6-6s-6 2.691-6 6c0 .219.008.509.057.737a5.9 5.9 0 0 0 1.673 3.447C25.59 46.75 24 48.685 24 51zm8-13c1.422 0 2.665.752 3.375 1.874C34.357 39.312 33.201 39 32 39s-2.357.312-3.375.874A3.993 3.993 0 0 1 32 38zm0 3c1.522 0 2.941.695 3.88 1.867A3.966 3.966 0 0 1 32 46c-1.874 0-3.456-1.298-3.877-3.137A4.965 4.965 0 0 1 32 41zm.912 12.83L32 55.197l-.912-1.367.912-3.19zM26 51c0-1.654 1.346-3 3-3h1.674l-1.636 5.725c-.081.282-.033.585.129.83l2 3a1.001 1.001 0 0 0 1.665 0l2-3a.998.998 0 0 0 .129-.83L33.326 48H35c1.654 0 3 1.346 3 3v9H26z" fill="#000000" opacity="1" data-original="#000000"></path></g></svg>