<svg xmlns="http://www.w3.org/2000/svg" version="1.1" xmlns:xlink="http://www.w3.org/1999/xlink" width="20" height="20" x="0" y="0" viewBox="0 0 64 64" style="enable-background:new 0 0 512 512" xml:space="preserve" class=""><g><path d="m2.2 50.6 2.654 3.538-2.773 6.468a1 1 0 0 0 1.4 1.27l20-11a.998.998 0 0 0 0-1.752l-20-11a.999.999 0 0 0-1.4 1.27l2.773 6.468L2.2 49.4a1 1 0 0 0 0 1.2zm4.52 4.258 9.388-2.209-11.045 6.075zm9.388-7.507L6.72 45.14l-1.657-3.865zm-9.7-.228L18.632 50 6.407 52.877 4.25 50zM46 2c-8.485 0-15.429 6.644-15.95 15h-2.636l-2.707-2.707-1.414 1.414L24.586 17H20.5C14.71 17 10 21.71 10 27.5S14.71 38 20.5 38h11.086l2.707 2.707 1.414-1.414L34.414 38H53.5c3.032 0 5.5 2.467 5.5 5.5S56.532 49 53.5 49h-9.086l-2.707-2.707-1.414 1.414L41.586 49H26v2h15.586l-1.293 1.293 1.414 1.414L44.414 51H53.5c4.136 0 7.5-3.364 7.5-7.5S57.636 36 53.5 36H34.414l1.293-1.293-1.414-1.414L31.586 36H20.5c-4.687 0-8.5-3.813-8.5-8.5s3.813-8.5 8.5-8.5h4.086l-1.293 1.293 1.414 1.414L27.414 19h2.637c.52 8.356 7.464 15 15.949 15 8.822 0 16-7.178 16-16S54.822 2 46 2zm0 30c-7.382 0-13.433-5.747-13.95-13h3c.508 5.598 5.222 10 10.95 10 6.065 0 11-4.935 11-11S52.065 7 46 7c-5.728 0-10.442 4.402-10.95 10h-3C32.568 9.747 38.619 4 46 4c7.72 0 14 6.28 14 14s-6.28 14-14 14zm-2.293-10.293 3-3a1 1 0 0 0 0-1.414l-3-3-1.414 1.414L43.586 17h-6.527c.5-4.493 4.316-8 8.941-8 4.963 0 9 4.038 9 9s-4.037 9-9 9c-4.625 0-8.442-3.507-8.941-8h6.527l-1.293 1.293z" fill="#000000" opacity="1" data-original="#000000" class=""></path><path d="M52 18c0-3.309-2.691-6-6-6v2c2.206 0 4 1.794 4 4s-1.794 4-4 4v2c3.309 0 6-2.691 6-6z" fill="#000000" opacity="1" data-original="#000000" class=""></path></g></svg>