<svg xmlns="http://www.w3.org/2000/svg" version="1.1" xmlns:xlink="http://www.w3.org/1999/xlink" width="20" height="20" x="0" y="0" viewBox="0 0 64 64" style="enable-background:new 0 0 512 512" xml:space="preserve" class=""><g><path d="M32 7a9 9 0 1 0 9 9 9.01 9.01 0 0 0-9-9zm0 16a7 7 0 1 1 7-7 7.008 7.008 0 0 1-7 7z" fill="#0066FF" opacity="1" data-original="#0066FF" class=""></path><path d="M44.506 19.972a.36.36 0 0 1 .32-.277h.908a1 1 0 0 0 .982-.807 14.814 14.814 0 0 0 0-5.776 1 1 0 0 0-.982-.807h-.908a.36.36 0 0 1-.32-.277 13.018 13.018 0 0 0-.857-2.06.363.363 0 0 1 .032-.423l.646-.647a1.001 1.001 0 0 0 .123-1.265 14.988 14.988 0 0 0-4.083-4.083 1.002 1.002 0 0 0-1.265.123l-.647.646a.36.36 0 0 1-.422.033 13.067 13.067 0 0 0-2.061-.858.36.36 0 0 1-.277-.32v-.908a1 1 0 0 0-.807-.982 14.89 14.89 0 0 0-5.776 0 1 1 0 0 0-.807.982v.908a.36.36 0 0 1-.276.32 13.028 13.028 0 0 0-2.06.857.365.365 0 0 1-.424-.032l-.647-.646a1 1 0 0 0-1.265-.123 14.988 14.988 0 0 0-4.083 4.083 1.001 1.001 0 0 0 .123 1.265l.646.647a.362.362 0 0 1 .032.422 13.067 13.067 0 0 0-.857 2.061.36.36 0 0 1-.32.277h-.908a1 1 0 0 0-.982.807 14.814 14.814 0 0 0 0 5.776 1 1 0 0 0 .982.807h.908a.36.36 0 0 1 .32.276 13.028 13.028 0 0 0 .857 2.06.363.363 0 0 1-.032.424l-.646.647a1.001 1.001 0 0 0-.123 1.265 14.988 14.988 0 0 0 4.083 4.083 1 1 0 0 0 1.265-.123l.647-.646a.36.36 0 0 1 .422-.033 13.067 13.067 0 0 0 2.061.858.36.36 0 0 1 .277.32v.908a1 1 0 0 0 .807.982 14.814 14.814 0 0 0 5.776 0 1 1 0 0 0 .807-.982v-.908a.36.36 0 0 1 .276-.32 13.028 13.028 0 0 0 2.06-.857.365.365 0 0 1 .424.032l.647.646a1.002 1.002 0 0 0 1.265.123 14.988 14.988 0 0 0 4.083-4.083 1.001 1.001 0 0 0-.123-1.265l-.646-.647a.362.362 0 0 1-.033-.422 13.067 13.067 0 0 0 .858-2.061zm-1.906-.607a10.998 10.998 0 0 1-.726 1.746 2.35 2.35 0 0 0 .393 2.758l.046.046a12.96 12.96 0 0 1-2.398 2.397l-.046-.045a2.35 2.35 0 0 0-2.76-.392 10.961 10.961 0 0 1-1.745.725 2.35 2.35 0 0 0-1.669 2.226v.06a12.634 12.634 0 0 1-3.39 0v-.06a2.35 2.35 0 0 0-1.67-2.226 10.998 10.998 0 0 1-1.746-.726 2.351 2.351 0 0 0-2.758.393l-.046.045a12.96 12.96 0 0 1-2.397-2.397l.045-.046a2.35 2.35 0 0 0 .392-2.76 10.961 10.961 0 0 1-.725-1.745 2.35 2.35 0 0 0-2.226-1.669h-.06a12.634 12.634 0 0 1 0-3.39h.06a2.35 2.35 0 0 0 2.226-1.67 10.998 10.998 0 0 1 .726-1.746 2.35 2.35 0 0 0-.393-2.758l-.045-.046a12.96 12.96 0 0 1 2.397-2.398l.046.046a2.346 2.346 0 0 0 2.76.392 10.961 10.961 0 0 1 1.745-.725 2.35 2.35 0 0 0 1.669-2.226v-.06a12.634 12.634 0 0 1 3.39 0v.06a2.35 2.35 0 0 0 1.67 2.226 10.998 10.998 0 0 1 1.746.726 2.351 2.351 0 0 0 2.758-.393l.046-.046a12.96 12.96 0 0 1 2.398 2.398l-.046.046a2.35 2.35 0 0 0-.392 2.76 10.989 10.989 0 0 1 .725 1.744 2.35 2.35 0 0 0 2.226 1.67h.06a12.634 12.634 0 0 1 0 3.39h-.06a2.35 2.35 0 0 0-2.226 1.67z" fill="#0066FF" opacity="1" data-original="#0066FF" class=""></path><path d="m32.918 15.831-1.935-1.88a1 1 0 0 0-1.311-.073l-3.286 2.556 1.228 1.578 2.599-2.022 1.947 1.894a1.001 1.001 0 0 0 1.327.06l4.143-3.356-1.26-1.555zM58 43a6 6 0 1 0-11.637 2.035l-13.97-5.955-.03-.009a.978.978 0 0 0-.132-.037 1.008 1.008 0 0 0-.108-.024.834.834 0 0 0-.353.023.971.971 0 0 0-.134.039c-.01.003-.02.004-.029.008l-13.97 5.955a5.997 5.997 0 1 0-8.075 3.442l-2.405 1.025A7.007 7.007 0 0 0 3 55.899V63h2v-7.1a5 5 0 0 1 2.956-4.564L31 41.514v2.868l-11.447 5.723A1 1 0 0 0 19 51v12h2V51.618l11-5.5 11 5.5V63h2V51a1 1 0 0 0-.553-.895L33 44.382v-2.868l23.03 9.816A5.005 5.005 0 0 1 59 55.9V63h2v-7.1a7.011 7.011 0 0 0-4.17-6.404l-2.392-1.019A6.005 6.005 0 0 0 58 43zM8 43a4 4 0 1 1 4 4 4.004 4.004 0 0 1-4-4zm44 4a4 4 0 1 1 4-4 4.004 4.004 0 0 1-4 4z" fill="#0066FF" opacity="1" data-original="#0066FF" class=""></path><path d="M55 55h2v8h-2zM7 55h2v8H7zM37 31h2v8h-2zM25 31h2v8h-2zM31 33h2v4h-2z" fill="#0066FF" opacity="1" data-original="#0066FF" class=""></path></g></svg>