<svg xmlns="http://www.w3.org/2000/svg" version="1.1" xmlns:xlink="http://www.w3.org/1999/xlink" width="20" height="20" x="0" y="0" viewBox="0 0 64 64" style="enable-background:new 0 0 512 512" xml:space="preserve" class=""><g><path d="M62 41h-6v-9a1 1 0 0 0-1-1H33v-8h6a2 2 0 0 0 2-2V7a2 2 0 0 0-2-2H25a2 2 0 0 0-2 2v14a2 2 0 0 0 2 2h6v8H9a1 1 0 0 0-1 1v9H2a2 2 0 0 0-2 2v14a2 2 0 0 0 2 2h14a2 2 0 0 0 2-2V43a2 2 0 0 0-2-2h-6v-8h21v8h-6a2 2 0 0 0-2 2v14a2 2 0 0 0 2 2h14a2 2 0 0 0 2-2V43a2 2 0 0 0-2-2h-6v-8h21v8h-6a2 2 0 0 0-2 2v14a2 2 0 0 0 2 2h14a2 2 0 0 0 2-2V43a2 2 0 0 0-2-2zM25 7h14v14H25V7zm-9 36v14H2V43h14zm23 14H25V43h14v14zm23 0H48V43h14v14z" fill="#0066FF" opacity="1" data-original="#0066FF"></path></g></svg>