<svg xmlns="http://www.w3.org/2000/svg" version="1.1" xmlns:xlink="http://www.w3.org/1999/xlink" width="20" height="20" x="0" y="0" viewBox="0 0 512 512" style="enable-background:new 0 0 512 512" xml:space="preserve" class=""><g><path d="M496.46 217.18c-5-7.85-9.77-15.26-11.7-22.48-2.05-7.67-1.66-16.74-1.25-26.34.59-13.92 1.21-28.31-5.78-40.39-7.1-12.27-20-19-32.44-25.41-8.43-4.38-16.4-8.51-21.87-14s-9.6-13.44-14-21.87C403 54.25 396.3 41.37 384 34.27c-12.07-7-26.47-6.37-40.39-5.78-9.6.41-18.67.8-26.34-1.25-7.22-1.93-14.63-6.68-22.48-11.7C282.88 7.9 270.54 0 256 0s-26.88 7.9-38.82 15.54c-7.85 5-15.26 9.77-22.48 11.7-7.7 2.05-16.7 1.66-26.34 1.25-13.92-.59-28.31-1.21-40.39 5.78-12.27 7.1-19 20-25.41 32.44-4.38 8.43-8.51 16.4-14 21.87s-13.44 9.6-21.87 14C54.25 109 41.37 115.7 34.27 128c-7 12.07-6.37 26.47-5.78 40.39.41 9.6.8 18.67-1.25 26.34-1.93 7.22-6.68 14.63-11.7 22.48C7.9 229.12 0 241.46 0 256s7.9 26.88 15.54 38.82c5 7.85 9.77 15.26 11.7 22.48 2.05 7.7 1.66 16.7 1.25 26.34-.59 13.92-1.21 28.36 5.78 40.36 7.1 12.27 20 19 32.44 25.41 8.43 4.38 16.4 8.51 21.87 14s9.6 13.44 14 21.87c6.42 12.47 13.12 25.35 25.42 32.45 12.07 7 26.47 6.37 40.39 5.78 9.6-.41 18.67-.8 26.34 1.25 7.22 1.93 14.63 6.68 22.48 11.7C229.12 504.1 241.46 512 256 512s26.88-7.9 38.82-15.54c7.85-5 15.26-9.77 22.48-11.7 7.67-2.05 16.74-1.66 26.34-1.25 13.92.59 28.31 1.21 40.39-5.78 12.27-7.1 19-20 25.41-32.44 4.38-8.43 8.51-16.4 14-21.87s13.44-9.6 21.87-14c12.44-6.42 25.32-13.12 32.42-25.42 7-12.07 6.37-26.47 5.78-40.39-.41-9.6-.8-18.67 1.25-26.34 1.93-7.22 6.68-14.63 11.7-22.48C504.1 282.88 512 270.54 512 256s-7.9-26.88-15.54-38.82Zm-12.64 69.56c-5.42 8.46-11 17.22-13.55 26.69-2.64 9.89-2.19 20.55-1.75 30.85.53 12.32 1 24-3.77 32.24-4.91 8.48-15.33 13.89-26.36 19.61-9.08 4.71-18.46 9.58-25.57 16.69s-12 16.49-16.69 25.57c-5.72 11-11.13 21.45-19.61 26.36-8.29 4.8-19.92 4.3-32.24 3.77-10.3-.44-21-.89-30.85 1.75-9.47 2.53-18.23 8.13-26.69 13.55C276.15 490.6 266.15 497 256 497s-20.15-6.4-30.74-13.18c-8.46-5.42-17.22-11-26.69-13.55a73.32 73.32 0 0 0-19-2.08c-4 0-7.94.16-11.86.33-12.32.53-23.95 1-32.24-3.77-8.48-4.91-13.89-15.33-19.61-26.36-4.71-9.08-9.58-18.46-16.69-25.57s-16.49-12-25.57-16.69c-11-5.72-21.45-11.13-26.36-19.61-4.79-8.29-4.3-19.92-3.77-32.24.44-10.31.89-21-1.75-30.85-2.52-9.43-8.12-18.23-13.54-26.69C21.4 276.15 15 266.15 15 256s6.4-20.15 13.18-30.74c5.42-8.46 11-17.22 13.55-26.69 2.64-9.89 2.19-20.55 1.75-30.85-.53-12.32-1-23.95 3.77-32.24 4.91-8.48 15.33-13.89 26.36-19.61 9.08-4.71 18.46-9.58 25.57-16.69s12-16.49 16.69-25.57c5.72-11 11.13-21.45 19.61-26.36 8.29-4.79 19.92-4.3 32.24-3.77 10.3.44 21 .89 30.85-1.75 9.43-2.53 18.23-8.13 26.69-13.55C235.85 21.4 245.85 15 256 15s20.15 6.4 30.74 13.18c8.46 5.42 17.22 11 26.69 13.55 9.89 2.64 20.55 2.19 30.85 1.75 12.32-.53 24-1 32.24 3.77 8.48 4.91 13.89 15.33 19.61 26.36 4.71 9.08 9.58 18.46 16.69 25.57s16.49 12 25.57 16.69c11 5.72 21.45 11.13 26.36 19.61 4.79 8.29 4.3 19.92 3.77 32.24-.44 10.31-.89 21 1.75 30.85 2.53 9.47 8.13 18.23 13.55 26.69C490.6 235.85 497 245.85 497 256s-6.4 20.15-13.18 30.74Z" fill="#0066FF" opacity="1" data-original="#0066FF" class=""></path><path d="M256 68.5C152.61 68.5 68.5 152.61 68.5 256S152.61 443.5 256 443.5 443.5 359.39 443.5 256 359.39 68.5 256 68.5Zm0 360c-95.12 0-172.5-77.38-172.5-172.5S160.88 83.5 256 83.5 428.5 160.88 428.5 256 351.12 428.5 256 428.5Z" fill="#0066FF" opacity="1" data-original="#0066FF" class=""></path><path d="M360.89 185.31a7.51 7.51 0 0 0-8-1.15l-56.61 25.38-33.86-57.35a7.5 7.5 0 0 0-12.92 0l-33.86 57.35-56.61-25.38a7.5 7.5 0 0 0-10.3 8.85l25 90a7.52 7.52 0 0 0 7.27 5.49h150a7.52 7.52 0 0 0 7.23-5.49l25-90a7.54 7.54 0 0 0-2.34-7.7ZM325.3 273.5H186.7l-19.2-69.13L215.66 226a7.5 7.5 0 0 0 9.53-3L256 170.75l30.81 52.19a7.5 7.5 0 0 0 9.53 3l48.16-21.6ZM331 311H181a7.5 7.5 0 0 0-7.5 7.5v25a20 20 0 0 0 20 20h125a20 20 0 0 0 20-20v-25a7.5 7.5 0 0 0-7.5-7.5Zm-7.5 32.5a5 5 0 0 1-5 5h-125a5 5 0 0 1-5-5V326h135Z" fill="#0066FF" opacity="1" data-original="#0066FF" class=""></path></g></svg>