<?xml version="1.0" encoding="utf-8"?>
<!-- Generator: Adobe Illustrator 16.0.0, SVG Export Plug-In . SVG Version: 6.00 Build 0)  -->
<!DOCTYPE svg PUBLIC "-//W3C//DTD SVG 1.1//EN" "http://www.w3.org/Graphics/SVG/1.1/DTD/svg11.dtd">
<svg version="1.1" id="Layer_1" xmlns="http://www.w3.org/2000/svg" xmlns:xlink="http://www.w3.org/1999/xlink" x="0px" y="0px"
	 width="426.897px" height="93.792px" viewBox="0 0 426.897 93.792" enable-background="new 0 0 426.897 93.792"
	 xml:space="preserve">
<g>
	<g>
		<g>
			<g>
				<path fill="#00B5E2" d="M211.877,24.816l-13.172,45.948h-16.358l-13.11-45.948h15.745l5.942,30.325h0.184l0.857-4.84
					l5.146-25.485H211.877z"/>
				<path fill="#00B5E2" d="M254.449,24.816l-13.172,45.948h-16.357l-13.11-45.948h15.745l5.942,30.325h0.185l0.857-4.84
					l5.146-25.485H254.449z"/>
				<path fill="#00B5E2" d="M271.328,24.816l6.8,19.727l1.532,4.718h0.184l1.471-4.718l6.922-19.727h15.745v45.948h-13.11V55.631
					l0.123-4.962l-0.185-0.062l-1.531,4.779l-5.146,15.377h-9.189l-5.146-15.438l-1.47-4.779l-0.123,0.062l0.062,4.962v15.194
					h-12.56V24.816H271.328z"/>
				<path fill="#00B5E2" d="M341.064,52.079c0,3.553-0.336,6.565-1.011,9.036c-0.674,2.472-1.715,4.493-3.124,6.065
					s-3.186,2.706-5.33,3.4c-2.145,0.693-4.708,1.041-7.689,1.041c-2.939,0-5.493-0.348-7.657-1.041
					c-2.165-0.694-3.952-1.828-5.36-3.4c-1.409-1.572-2.461-3.594-3.155-6.065c-0.695-2.471-1.042-5.483-1.042-9.036
					c0-3.554,0.347-6.576,1.042-9.067c0.694-2.491,1.746-4.534,3.155-6.126c1.408-1.593,3.195-2.757,5.36-3.492
					c2.164-0.735,4.718-1.103,7.657-1.103c2.981,0,5.555,0.368,7.721,1.103c2.164,0.735,3.94,1.898,5.329,3.492
					c1.388,1.593,2.42,3.635,3.094,6.126C340.728,45.503,341.064,48.525,341.064,52.079z M335.244,21.998l-7.596,8.944h-9.741
					l2.573-8.944H335.244z M320.48,52.079c0,2.043,0.061,3.666,0.184,4.87c0.122,1.205,0.316,2.135,0.582,2.787
					c0.266,0.654,0.622,1.083,1.072,1.287c0.449,0.205,1,0.307,1.654,0.307c0.652,0,1.194-0.112,1.623-0.337
					s0.775-0.664,1.041-1.317s0.449-1.583,0.552-2.788c0.102-1.204,0.153-2.807,0.153-4.809c0-2.001-0.052-3.615-0.153-4.84
					c-0.103-1.226-0.286-2.175-0.552-2.849c-0.266-0.674-0.623-1.113-1.072-1.318c-0.449-0.204-1.001-0.306-1.654-0.306
					s-1.193,0.103-1.623,0.306c-0.429,0.205-0.775,0.634-1.041,1.287c-0.266,0.654-0.46,1.593-0.582,2.818
					C320.541,48.402,320.48,50.037,320.48,52.079z"/>
				<path fill="#00B5E2" d="M378.251,33.025l-11.457,37.739H351.05l-11.273-37.739h14.336l3.86,19.421l0.919,4.84h0.184l0.857-4.84
					l3.982-19.421H378.251z"/>
				<path fill="#00B5E2" d="M393.42,26.286c0,1.634-0.552,2.87-1.654,3.707c-1.103,0.838-2.88,1.256-5.33,1.256
					c-2.41,0-4.187-0.377-5.33-1.134c-1.144-0.755-1.716-2.031-1.716-3.829c0-3.349,2.349-5.024,7.046-5.024
					c2.45,0,4.228,0.419,5.33,1.256C392.869,23.356,393.42,24.612,393.42,26.286z M379.636,70.764V33.332l13.6-0.551v37.984H379.636
					z"/>
				<path fill="#00B5E2" d="M397.108,70.764V23.529l13.417-0.613v47.848H397.108z"/>
			</g>
		</g>
	</g>
	<g>
		<g>
			<path fill="#999999" d="M152.056,22.527v48.078c0,3.965-1.605,7.557-4.203,10.153c-2.601,2.602-6.189,4.207-10.158,4.207
				c-5.131,0-9.639-2.688-12.173-6.745c-0.661-1.054-1.188-2.2-1.56-3.412c-0.004-0.005-0.004-0.013-0.004-0.017l0.004-0.004
				l22.038-38.172l4.127-7.151c0.464-0.807,0.845-1.639,1.138-2.488v-0.004C151.776,25.517,152.031,24.016,152.056,22.527z"/>
			<path fill="#999999" d="M95.723,74.808c0,0.008-0.004,0.021-0.008,0.029v0.004c-0.435,1.413-1.079,2.731-1.903,3.923
				c-0.494,0.715-1.054,1.38-1.665,1.99c-2.597,2.602-6.189,4.207-10.158,4.207c-4.922,0-9.267-2.476-11.855-6.252
				c-0.812-1.191-1.456-2.514-1.882-3.922l11.646-20.17l2.07-3.588l0.012-0.024l2.058,3.563l11.68,20.228L95.723,74.808z"/>
			<path fill="#64D4ED" d="M152.054,22.525c-0.023,1.491-0.28,2.991-0.787,4.446l-0.002,0.005c-0.292,0.85-0.67,1.682-1.136,2.488
				L146,36.615l-22.039,38.172l-0.005,0.01l-0.734,1.271l-0.419,0.725c-1.206,2.518-3.161,4.707-5.762,6.21
				c-2.211,1.278-4.618,1.899-7.001,1.924c-0.134,0.005-0.266,0.005-0.4,0c-2.383-0.024-4.793-0.646-7.004-1.924
				c-2.07-1.194-3.729-2.826-4.927-4.712c-0.229-0.358-0.44-0.725-0.634-1.101c-0.064-0.122-0.126-0.246-0.187-0.371l-0.005-0.007
				l-1.158-2.003l-0.007-0.015L84.04,54.566l-2.058-3.563l-0.017-0.028l-8.289-14.36l-4.13-7.15
				c-1.213-2.104-1.837-4.389-1.917-6.659c-0.007-0.17-0.01-0.338-0.01-0.508v-0.091c0-0.083,0.002-0.17,0.005-0.256
				c0.002-0.039,0.002-0.079,0.002-0.12c0.005-0.103,0.01-0.208,0.017-0.314c0.002-0.074,0.007-0.153,0.015-0.227
				c0.007-0.137,0.019-0.273,0.033-0.407c0.01-0.115,0.024-0.225,0.039-0.337c0.007-0.055,0.014-0.11,0.021-0.165
				c0.033-0.263,0.074-0.524,0.125-0.783c0.282-1.483,0.799-2.922,1.531-4.252l0.034-0.063l0.105-0.18
				c0.01-0.016,0.017-0.03,0.029-0.045c0.012-0.022,0.024-0.043,0.038-0.065c0.002-0.004,0.005-0.009,0.01-0.014
				c0.067-0.115,0.134-0.225,0.204-0.335c0-0.002,0.002-0.007,0.005-0.01c0.009-0.017,0.019-0.033,0.031-0.048
				c0.058-0.096,0.12-0.188,0.182-0.282c0.002-0.005,0.005-0.007,0.009-0.012c0.029-0.046,0.06-0.094,0.094-0.137
				c0.043-0.064,0.086-0.129,0.134-0.193c0.017-0.027,0.034-0.053,0.053-0.077c0.009-0.017,0.021-0.031,0.033-0.048
				c0.058-0.076,0.115-0.155,0.172-0.229c0.039-0.053,0.079-0.105,0.12-0.158c0.063-0.081,0.127-0.16,0.189-0.239
				c0.034-0.038,0.065-0.076,0.096-0.114v-0.003c0.101-0.12,0.201-0.234,0.299-0.349c0.007-0.005,0.012-0.01,0.014-0.014
				c0.063-0.072,0.127-0.142,0.191-0.211c0.015-0.017,0.031-0.036,0.048-0.053c0.026-0.031,0.055-0.06,0.086-0.088
				c0.024-0.029,0.05-0.055,0.074-0.082c0.031-0.031,0.06-0.062,0.091-0.091c0.055-0.055,0.11-0.112,0.167-0.167
				c0.014-0.014,0.029-0.026,0.041-0.041c0.093-0.089,0.187-0.18,0.283-0.269c0.009-0.009,0.021-0.019,0.033-0.03
				c0.015-0.012,0.029-0.026,0.043-0.039c0.098-0.091,0.198-0.177,0.299-0.263c0.007-0.007,0.015-0.012,0.021-0.02
				c0.064-0.055,0.129-0.11,0.196-0.165c0.026-0.023,0.053-0.045,0.082-0.066c0.012-0.01,0.024-0.02,0.036-0.027
				c0.007-0.007,0.012-0.012,0.019-0.019c0.002,0,0.005-0.002,0.007-0.005c0.007-0.005,0.012-0.01,0.019-0.015
				c0.036-0.031,0.072-0.06,0.108-0.086c0.029-0.023,0.058-0.045,0.086-0.069c0.031-0.021,0.06-0.045,0.091-0.067
				c0.007-0.004,0.012-0.009,0.02-0.014c0.017-0.015,0.031-0.026,0.048-0.039c0.019-0.014,0.038-0.029,0.057-0.043
				c0.017-0.012,0.036-0.024,0.053-0.039c0,0,0.002,0,0.002-0.002c0.088-0.065,0.177-0.129,0.266-0.191
				c0.019-0.012,0.036-0.024,0.055-0.038c0.11-0.077,0.223-0.151,0.335-0.226c0.064-0.041,0.129-0.083,0.196-0.124
				c0.064-0.041,0.131-0.084,0.196-0.122c0.12-0.074,0.242-0.146,0.363-0.215c0.161-0.091,0.323-0.18,0.491-0.266
				c0.137-0.072,0.275-0.139,0.414-0.206c0.101-0.048,0.201-0.095,0.304-0.141c0.206-0.096,0.409-0.182,0.618-0.263
				c0.105-0.041,0.208-0.082,0.313-0.12c0.117-0.043,0.232-0.084,0.349-0.125c1.417-0.486,2.876-0.737,4.327-0.763
				c0.096-0.005,0.189-0.005,0.285-0.005c0.16,0,0.321,0.002,0.481,0.01c0.002,0,0.005,0,0.005,0
				c0.122,0.005,0.242,0.009,0.364,0.017c0.053,0.002,0.107,0.005,0.16,0.009c0.007,0,0.014,0.002,0.021,0.002
				c0.228,0.017,0.457,0.039,0.685,0.065c0.017,0.002,0.033,0.004,0.053,0.007c0.017,0.002,0.031,0.005,0.048,0.005
				c0.052,0.007,0.105,0.014,0.155,0.021c0.015,0.002,0.029,0.004,0.043,0.007c0.039,0.002,0.077,0.01,0.115,0.017
				c0.081,0.01,0.163,0.021,0.241,0.036c0.247,0.041,0.493,0.088,0.74,0.144l0.215,0.05c0.067,0.014,0.136,0.031,0.203,0.05
				c0.067,0.017,0.137,0.033,0.204,0.052c0.11,0.029,0.22,0.06,0.331,0.093c0.074,0.021,0.15,0.043,0.225,0.07
				c0.034,0.009,0.069,0.019,0.103,0.031c0.064,0.021,0.131,0.043,0.199,0.065c0.144,0.048,0.287,0.1,0.431,0.153
				c0.112,0.041,0.225,0.084,0.337,0.129h0.002c0.033,0.014,0.069,0.029,0.103,0.043c0.345,0.141,0.687,0.299,1.024,0.471
				c0.112,0.056,0.225,0.115,0.335,0.175c0.125,0.067,0.249,0.134,0.371,0.206c0.144,0.084,0.285,0.167,0.426,0.256
				c0.277,0.172,0.548,0.354,0.811,0.543c0,0,0.002,0.005,0.005,0.005c0.132,0.096,0.261,0.191,0.388,0.292
				c0.129,0.099,0.253,0.199,0.378,0.302c0.117,0.098,0.235,0.198,0.35,0.302c0.005,0.005,0.009,0.01,0.017,0.012
				c0.239,0.213,0.469,0.433,0.691,0.658c0.333,0.34,0.648,0.694,0.943,1.06c0.01,0.015,0.021,0.027,0.034,0.041
				c0.093,0.117,0.182,0.232,0.271,0.352c0.088,0.117,0.177,0.237,0.261,0.356c0.005,0.01,0.012,0.02,0.019,0.026
				c0.082,0.12,0.163,0.239,0.242,0.362c0.091,0.136,0.177,0.275,0.261,0.414c0.058,0.091,0.112,0.182,0.165,0.275l0.082,0.141
				l0.21,0.371l0.039,0.062l0.009,0.019l0.005,0.012l5.063,8.766v0.002l7.011,12.14l2.999,5.188l2.996-5.188l2.743-4.75
				c0.002,0,0.002-0.002,0.002-0.005l9.318-16.141l0.002-0.002l0.16-0.278l0.012-0.023l0.182-0.313
				c0.366-0.634,0.773-1.229,1.216-1.787c0.127-0.158,0.256-0.314,0.39-0.467c0.131-0.151,0.266-0.302,0.404-0.445
				c0.483-0.512,0.998-0.981,1.541-1.407c1.084-0.852,2.278-1.539,3.542-2.043c1.699-0.679,3.518-1.034,5.358-1.034
				c2.436,0,4.905,0.622,7.167,1.926c3.662,2.116,6.04,5.599,6.863,9.433c0.026,0.127,0.053,0.256,0.077,0.388
				c0.026,0.153,0.055,0.311,0.076,0.467c0.02,0.114,0.036,0.229,0.05,0.344c0.015,0.113,0.026,0.225,0.039,0.339
				c0.007,0.07,0.014,0.14,0.019,0.211c0.012,0.103,0.019,0.208,0.026,0.313c0.002,0.024,0.005,0.048,0.005,0.072
				c0.002,0.05,0.004,0.103,0.009,0.153v0.036C152.054,21.908,152.059,22.216,152.054,22.525z"/>
			<path fill="#999999" d="M112.844,36.623l-2.996,5.19l-2.998-5.19l-2.926-5.069c2.634,4.561,9.214,4.561,11.847,0L112.844,36.623z
				"/>
			<path fill="#00B5E2" d="M96.33,22.906c-0.079,1.914-0.545,3.838-1.431,5.651c0,0,0,0.003-0.002,0.003
				c-0.146,0.304-0.307,0.605-0.479,0.904L81.982,51.003l-0.014,0.026l-2.07,3.587L68.251,74.79l-0.151,0.263l-1.019,1.764
				c-0.605,1.254-1.396,2.427-2.357,3.475c-0.962,1.046-2.099,1.965-3.393,2.714c-2.178,1.258-4.546,1.878-6.894,1.921
				c-0.103,0.003-0.206,0-0.309,0.003c-0.103-0.003-0.206,0-0.309-0.003c-1.173-0.021-2.353-0.187-3.511-0.505
				c-1.158-0.318-2.294-0.787-3.383-1.416c-2.594-1.496-4.542-3.681-5.75-6.188L13.836,29.464c-1.304-2.261-1.926-4.729-1.926-7.164
				c0-4.963,2.577-9.79,7.184-12.451c6.868-3.967,15.652-1.613,19.618,5.254L54.128,41.81l15.279-26.463l0.034-0.063l0.105-0.18
				c0.022-0.038,0.043-0.074,0.067-0.11c0.072-0.122,0.144-0.242,0.218-0.359c0.009-0.017,0.019-0.033,0.031-0.048
				c0.058-0.096,0.12-0.188,0.182-0.282c0.033-0.05,0.067-0.101,0.103-0.148c0.06-0.091,0.122-0.182,0.187-0.271
				c0.009-0.017,0.021-0.031,0.033-0.048c0.058-0.076,0.115-0.155,0.172-0.229c0.039-0.053,0.079-0.105,0.12-0.158
				c0.093-0.119,0.189-0.239,0.285-0.354c0.002-0.003,0-0.003,0-0.003c0.101-0.12,0.201-0.234,0.299-0.349
				c0.007-0.005,0.012-0.01,0.014-0.014c0.108-0.12,0.216-0.237,0.326-0.352s0.22-0.23,0.333-0.34
				c0.014-0.014,0.029-0.026,0.041-0.041c0.093-0.089,0.187-0.18,0.283-0.269c0.009-0.009,0.021-0.019,0.033-0.03
				c0.113-0.104,0.228-0.204,0.342-0.302c0.11-0.096,0.223-0.189,0.335-0.278c0.01-0.009,0.017-0.017,0.026-0.024
				c0.007-0.005,0.012-0.01,0.019-0.015c0.101-0.081,0.201-0.16,0.304-0.236c0.017-0.015,0.031-0.026,0.048-0.039
				c0.019-0.014,0.038-0.029,0.057-0.043c0.017-0.012,0.036-0.024,0.053-0.039c0,0,0.002,0,0.002-0.002
				c0.088-0.065,0.177-0.129,0.266-0.191c0.019-0.012,0.036-0.024,0.055-0.038c0.11-0.077,0.223-0.151,0.335-0.226
				c0.129-0.083,0.261-0.167,0.393-0.246c0.12-0.074,0.242-0.146,0.363-0.215c0.294-0.167,0.596-0.326,0.905-0.472
				c0.402-0.194,0.816-0.369,1.235-0.524c1.732-0.637,3.582-0.94,5.441-0.883c0.002,0,0.005,0,0.005,0
				c0.122,0.005,0.242,0.009,0.364,0.017c0.053,0.002,0.107,0.005,0.16,0.009c0.007,0,0.014,0.002,0.021,0.002
				c0.228,0.017,0.457,0.039,0.685,0.065c0.017,0.002,0.033,0.004,0.053,0.007c0.083,0.01,0.165,0.019,0.246,0.033
				c0.039,0.002,0.077,0.01,0.115,0.017c0.081,0.01,0.163,0.021,0.241,0.036c0.247,0.041,0.493,0.088,0.74,0.144l0.215,0.05
				c0.067,0.014,0.136,0.031,0.203,0.05c0.067,0.017,0.137,0.033,0.204,0.052c0.11,0.029,0.22,0.06,0.331,0.093
				c0.074,0.021,0.15,0.043,0.225,0.07c0.103,0.029,0.204,0.062,0.302,0.096c0.144,0.048,0.287,0.1,0.431,0.153
				c0.148,0.055,0.294,0.112,0.442,0.173c0.586,0.241,1.166,0.526,1.73,0.852c1.151,0.665,2.175,1.467,3.065,2.369
				c0.333,0.34,0.648,0.694,0.943,1.06c0.01,0.015,0.021,0.027,0.034,0.041c0.184,0.232,0.361,0.469,0.531,0.708
				c0.005,0.01,0.012,0.02,0.019,0.026c0.082,0.12,0.163,0.239,0.242,0.362c0.18,0.273,0.347,0.55,0.505,0.835
				C95.809,17.574,96.445,20.233,96.33,22.906z"/>
		</g>
	</g>
</g>
</svg>
