<?xml version="1.0" encoding="UTF-8"?>
<svg width="1440" height="800" viewBox="0 0 1440 800" fill="none" xmlns="http://www.w3.org/2000/svg">
  <g opacity="0.5">
    <!-- World Map Dots Pattern -->
    <circle cx="200" cy="150" r="4" fill="currentColor"/>
    <circle cx="220" cy="150" r="4" fill="currentColor"/>
    <circle cx="240" cy="150" r="4" fill="currentColor"/>
    <circle cx="260" cy="150" r="4" fill="currentColor"/>
    <circle cx="280" cy="150" r="4" fill="currentColor"/>
    
    <circle cx="190" cy="180" r="4" fill="currentColor"/>
    <circle cx="210" cy="180" r="4" fill="currentColor"/>
    <circle cx="230" cy="180" r="4" fill="currentColor"/>
    <circle cx="250" cy="180" r="4" fill="currentColor"/>
    <circle cx="270" cy="180" r="4" fill="currentColor"/>
    <circle cx="290" cy="180" r="4" fill="currentColor"/>
    
    <circle cx="180" cy="210" r="4" fill="currentColor"/>
    <circle cx="200" cy="210" r="4" fill="currentColor"/>
    <circle cx="220" cy="210" r="4" fill="currentColor"/>
    <circle cx="240" cy="210" r="4" fill="currentColor"/>
    <circle cx="260" cy="210" r="4" fill="currentColor"/>
    <circle cx="280" cy="210" r="4" fill="currentColor"/>
    <circle cx="300" cy="210" r="4" fill="currentColor"/>
    
    <!-- Europe -->
    <circle cx="700" cy="200" r="4" fill="currentColor"/>
    <circle cx="720" cy="200" r="4" fill="currentColor"/>
    <circle cx="740" cy="200" r="4" fill="currentColor"/>
    <circle cx="760" cy="200" r="4" fill="currentColor"/>
    
    <circle cx="690" cy="230" r="4" fill="currentColor"/>
    <circle cx="710" cy="230" r="4" fill="currentColor"/>
    <circle cx="730" cy="230" r="4" fill="currentColor"/>
    <circle cx="750" cy="230" r="4" fill="currentColor"/>
    <circle cx="770" cy="230" r="4" fill="currentColor"/>
    
    <!-- Asia -->
    <circle cx="900" cy="250" r="4" fill="currentColor"/>
    <circle cx="920" cy="250" r="4" fill="currentColor"/>
    <circle cx="940" cy="250" r="4" fill="currentColor"/>
    <circle cx="960" cy="250" r="4" fill="currentColor"/>
    
    <circle cx="890" cy="280" r="4" fill="currentColor"/>
    <circle cx="910" cy="280" r="4" fill="currentColor"/>
    <circle cx="930" cy="280" r="4" fill="currentColor"/>
    <circle cx="950" cy="280" r="4" fill="currentColor"/>
    <circle cx="970" cy="280" r="4" fill="currentColor"/>
    
    <!-- Africa -->
    <circle cx="700" cy="400" r="4" fill="currentColor"/>
    <circle cx="720" cy="400" r="4" fill="currentColor"/>
    <circle cx="740" cy="400" r="4" fill="currentColor"/>
    
    <circle cx="690" cy="430" r="4" fill="currentColor"/>
    <circle cx="710" cy="430" r="4" fill="currentColor"/>
    <circle cx="730" cy="430" r="4" fill="currentColor"/>
    <circle cx="750" cy="430" r="4" fill="currentColor"/>
    
    <!-- Australia -->
    <circle cx="1000" cy="500" r="4" fill="currentColor"/>
    <circle cx="1020" cy="500" r="4" fill="currentColor"/>
    <circle cx="1040" cy="500" r="4" fill="currentColor"/>
    
    <circle cx="990" cy="530" r="4" fill="currentColor"/>
    <circle cx="1010" cy="530" r="4" fill="currentColor"/>
    <circle cx="1030" cy="530" r="4" fill="currentColor"/>
    <circle cx="1050" cy="530" r="4" fill="currentColor"/>
  </g>
</svg> 